<?xml version="1.0" encoding="utf-8"?>
<!-- Generator: Adobe Illustrator 23.0.1, SVG Export Plug-In . SVG Version: 6.00 Build 0)  -->
<svg version="1.1" xmlns="http://www.w3.org/2000/svg" xmlns:xlink="http://www.w3.org/1999/xlink" x="0px" y="0px"
	 viewBox="0 0 160 160" style="enable-background:new 0 0 160 160;" xml:space="preserve">
<style type="text/css">
	.st0{clip-path:url(#SVGID_2_);}
	.st1{fill-rule:evenodd;clip-rule:evenodd;fill:#231815;stroke:#231815;stroke-width:1.2667;stroke-miterlimit:22.9256;}
	.st2{fill-rule:evenodd;clip-rule:evenodd;fill:none;stroke:#231815;stroke-width:5.0663;stroke-miterlimit:22.9256;}
	.st3{clip-path:url(#SVGID_4_);}
	.st4{clip-path:url(#SVGID_6_);}
	
		.st5{fill-rule:evenodd;clip-rule:evenodd;fill:none;stroke:#231815;stroke-width:5.0663;stroke-linecap:round;stroke-linejoin:round;stroke-miterlimit:22.9256;}
	
		.st6{fill-rule:evenodd;clip-rule:evenodd;fill:none;stroke:#231815;stroke-width:5.0663;stroke-linecap:round;stroke-miterlimit:22.9256;}
	.st7{clip-path:url(#SVGID_8_);}
</style>
<g id="图层_1">
</g>
<g id="图层_2">
	<g>
		<defs>
			<rect id="SVGID_7_" x="-6.3" y="-25.6" width="171.6" height="171.6"/>
		</defs>
		<clipPath id="SVGID_2_">
			<use xlink:href="#SVGID_7_"  style="overflow:visible;"/>
		</clipPath>
		<g class="st0">
			<g>
				<path class="st2" d="M25.9,30.2c2.1,0,3.1,0.1,4.4-2.9l3.9-8.9c1.1-2.5,2.2-4.9,4.9-4.9h40.5H120c2.7,0,3.8,2.4,4.9,4.9l3.9,8.9
					c1.3,3,1.3,2.9,4.4,2.9c2.7,0,4.9,2.2,4.9,4.9V44c0,2.7-2.2,4.9-4.9,4.9H25.9c-2.7,0-4.9-2.2-4.9-4.9v-8.9
					C21,32.4,23.2,30.2,25.9,30.2z"/>
				<path class="st2" d="M30.7,48.9h97.6l-15.9,128.6c-0.5,4.2-4.1,7.4-8.3,7.4H55c-4.3,0-7.8-3.1-8.3-7.4L30.7,48.9z"/>
				<line class="st6" x1="27.3" y1="30.1" x2="82.5" y2="30.1"/>
				<line class="st6" x1="97.7" y1="30.1" x2="109.1" y2="30.1"/>
				<path class="st2" d="M79.5,108.7c11.2,0,20.3-9.1,20.3-20.3c0-11.2-9.1-20.3-20.3-20.3c-11.2,0-20.3,9.1-20.3,20.3
					C59.2,99.6,68.3,108.7,79.5,108.7z"/>
			</g>
		</g>
	</g>
</g>
</svg>
