<?xml version="1.0" encoding="utf-8"?>
<!-- Generator: Adobe Illustrator 23.0.1, SVG Export Plug-In . SVG Version: 6.00 Build 0)  -->
<svg version="1.1" xmlns="http://www.w3.org/2000/svg" xmlns:xlink="http://www.w3.org/1999/xlink" x="0px" y="0px"
	 viewBox="0 0 160 160" style="enable-background:new 0 0 160 160;" xml:space="preserve">
<style type="text/css">
	.st0{clip-path:url(#SVGID_2_);}
	.st1{fill-rule:evenodd;clip-rule:evenodd;fill:#231815;stroke:#231815;stroke-width:1.2667;stroke-miterlimit:22.9256;}
	.st2{fill-rule:evenodd;clip-rule:evenodd;fill:none;stroke:#231815;stroke-width:5.0663;stroke-miterlimit:22.9256;}
	.st3{clip-path:url(#SVGID_4_);}
	.st4{clip-path:url(#SVGID_6_);}
	
		.st5{fill-rule:evenodd;clip-rule:evenodd;fill:none;stroke:#231815;stroke-width:5.0663;stroke-linecap:round;stroke-linejoin:round;stroke-miterlimit:22.9256;}
	
		.st6{fill-rule:evenodd;clip-rule:evenodd;fill:none;stroke:#231815;stroke-width:5.0663;stroke-linecap:round;stroke-miterlimit:22.9256;}
	.st7{clip-path:url(#SVGID_8_);}
</style>
<g id="图层_1">
</g>
<g id="图层_2">
	<g>
		<defs>
			<rect id="SVGID_3_" x="-5.9" y="-25.6" width="171.6" height="171.6"/>
		</defs>
		<clipPath id="SVGID_2_">
			<use xlink:href="#SVGID_3_"  style="overflow:visible;"/>
		</clipPath>
		<g class="st0">
			<path class="st2" d="M134.9,159.4h-33.8l0.2-48.5c0-6.8-5.5-12.5-12.5-12.5H69.5c-6.8,0-12.5,5.5-12.5,12.5v48.5H23.4V90.7
				c0-3.5-2.7-6.3-6.3-6.3H7c-0.5,0-1.1,0-1.6-0.5c-0.8-0.8-0.8-2.2,0-3l63.5-67.1c0-0.3,0.3-0.5,0.5-0.5c6-5.7,15.3-5.5,21,0.5
				l63.8,67.1c0.8,0.8,0.8,1.6,0.5,2.5c-0.3,0.8-1.1,1.4-1.9,1.4h-11.7c-3.5,0-6.3,2.7-6.3,6.3V159.4z"/>
		</g>
	</g>
</g>
</svg>
