<?xml version="1.0" encoding="utf-8"?>
<!-- Generator: Adobe Illustrator 23.0.1, SVG Export Plug-In . SVG Version: 6.00 Build 0)  -->
<svg version="1.1" xmlns="http://www.w3.org/2000/svg" xmlns:xlink="http://www.w3.org/1999/xlink" x="0px" y="0px"
	 viewBox="0 0 160 160" style="enable-background:new 0 0 160 160;" xml:space="preserve">
<style type="text/css">
	.st0{clip-path:url(#SVGID_2_);}
	.st1{fill-rule:evenodd;clip-rule:evenodd;fill:#231815;stroke:#231815;stroke-width:1.2667;stroke-miterlimit:22.9256;}
	.st2{fill-rule:evenodd;clip-rule:evenodd;fill:none;stroke:#231815;stroke-width:5.0663;stroke-miterlimit:22.9256;}
	.st3{clip-path:url(#SVGID_4_);}
	.st4{clip-path:url(#SVGID_6_);}
	
		.st5{fill-rule:evenodd;clip-rule:evenodd;fill:none;stroke:#231815;stroke-width:5.0663;stroke-linecap:round;stroke-linejoin:round;stroke-miterlimit:22.9256;}
	
		.st6{fill-rule:evenodd;clip-rule:evenodd;fill:none;stroke:#231815;stroke-width:5.0663;stroke-linecap:round;stroke-miterlimit:22.9256;}
	.st7{clip-path:url(#SVGID_8_);}
</style>
<g id="图层_1">
</g>
<g id="图层_2">
	<g>
		<defs>
			<rect id="SVGID_1_" x="-5.8" y="-26.6" width="171.6" height="171.6"/>
		</defs>
		<clipPath id="SVGID_2_">
			<use xlink:href="#SVGID_1_"  style="overflow:visible;"/>
		</clipPath>
		<g class="st0">
			<path class="st1" d="M80,83c17.7,0,33.7,7.2,45.2,18.7c11.1,11.1,18.2,26.3,18.7,43.2h-3.8c-0.5-15.8-7.1-30.1-17.6-40.5
				C111.7,93.6,96.6,86.8,80,86.8c-16.6,0-31.7,6.7-42.5,17.6C27,114.9,20.4,129.2,19.9,145h-3.8c0.5-16.9,7.6-32.1,18.7-43.2
				C46.4,90.2,62.4,83,80,83z"/>
			<circle class="st2" cx="80" cy="43.9" r="31.5"/>
		</g>
	</g>
</g>
</svg>
